# xmcd CD database file
#
# Track frame offsets:
#	150
#	13143
#	30344
#	43596
#	59399
#	72853
#	85437
#	104066
#	123634
#	139531
#
# Disc length: 2039 seconds
#
# Revision: 0
# Processed by: cddbd v1.5.2PL0 Copyright (c) Steve Scherf et al.
# Submitted via: CDex 1.70beta2
#
DISCID=8a07f50a
DTITLE=Payne, Roy - Cdn. - NF - Holding Up the Wall
DYEAR=2006
DGENRE=Country
TTITLE0=I Might Be Old and Ugly (But I'm Good)
TTITLE1=Holding Up the Wall
TTITLE2=The Day the Children Died
TTITLE3=B'tween Grandpas and Kids
TTITLE4=Cut Way Back On the Beer
TTITLE5=A Picture of My Newfoundland
TTITLE6=never Thought I Ever Would Grow Old
TTITLE7=Didn't Take Too Long (To Get Over You)
TTITLE8=Fireman's Dream
TTITLE9=Drink To Me Darlin'
EXTD=YEAR: 2006
EXTT0=
EXTT1=
EXTT2=
EXTT3=
EXTT4=
EXTT5=
EXTT6=
EXTT7=
EXTT8=
EXTT9=
PLAYORDER=
